<svg width="60" height="68" viewBox="0 0 68 78" fill="none" xmlns="http://www.w3.org/2000/svg">
<g filter="url(#filter0_d)">
<path d="M57 30.0342C57 49.3955 33 62.7999 33 62.7999C33 62.7999 9 49.3955 9 30.0342C9 18.4316 18.5513 6.3999 33 6.3999C47.4487 6.3999 57 18.4316 57 30.0342Z" fill="#00503C"/>
<path d="M33 62.7999L32.5124 63.673L33 63.9453L33.4876 63.673L33 62.7999ZM33 62.7999C33.4876 63.673 33.488 63.6728 33.4884 63.6725L33.4898 63.6718L33.4941 63.6693L33.5093 63.6608L33.5651 63.6291C33.6134 63.6014 33.6838 63.5609 33.7747 63.5076C33.9566 63.4011 34.2209 63.2438 34.5558 63.0375C35.2255 62.6249 36.1781 62.0159 37.3196 61.2249C39.6006 59.6442 42.645 57.3303 45.6932 54.3982C51.7569 48.5657 58 40.1276 58 30.0342C58 17.9378 48.0577 5.3999 33 5.3999C17.9423 5.3999 8 17.9378 8 30.0342C8 40.1276 14.2431 48.5657 20.3068 54.3982C23.355 57.3303 26.3994 59.6442 28.6804 61.2249C29.8219 62.0159 30.7745 62.6249 31.4442 63.0375C31.7791 63.2438 32.0434 63.4011 32.2253 63.5076C32.3162 63.5609 32.3866 63.6014 32.4349 63.6291L32.4907 63.6608L32.5059 63.6693L32.5102 63.6718L32.5116 63.6725C32.512 63.6728 32.5124 63.673 33 62.7999Z" stroke="white" stroke-width="2"/>
</g>
<path fill-rule="evenodd" clip-rule="evenodd" d="M33 18.2776L45 23.8331V28H21V23.8331L33 18.2776ZM23.4 25.3668V25.6H42.6V25.3668L33 20.9223L23.4 25.3668ZM45 39.2001V38.8H43H42.6V36.8V32.4V30.4H42.2H40.6H40.2V32.4V36.8V38.8L34.2 38.8L34.2 36.8V32.4V30.4H33.8H32.2H31.8L31.8 32.4V36.8V38.8L25.8 38.8V36.8L25.8 32.4V30.4H25.4H23.8H23.4L23.4 32.4L23.4 36.8V38.8H23H21V39.2001V40.8V41.2001H23H43H45V40.8V39.2001Z" fill="white"/>
<defs>
<filter id="filter0_d" x="0" y="0.399902" width="68" height="76.6908" filterUnits="userSpaceOnUse" color-interpolation-filters="sRGB">
<feFlood flood-opacity="0" result="BackgroundImageFix"/>
<feColorMatrix in="SourceAlpha" type="matrix" values="0 0 0 0 0 0 0 0 0 0 0 0 0 0 0 0 0 0 127 0"/>
<feOffset dx="1" dy="4"/>
<feGaussianBlur stdDeviation="4"/>
<feColorMatrix type="matrix" values="0 0 0 0 0 0 0 0 0 0 0 0 0 0 0 0 0 0 0.1 0"/>
<feBlend mode="normal" in2="BackgroundImageFix" result="effect1_dropShadow"/>
<feBlend mode="normal" in="SourceGraphic" in2="effect1_dropShadow" result="shape"/>
</filter>
</defs>
</svg>
