<svg width="60" height="68" viewBox="0 0 60 68" fill="none" xmlns="http://www.w3.org/2000/svg">
<g filter="url(#filter0_d)">
<path d="M49 25.6952C49 41.8296 29 53 29 53C29 53 9 41.8296 9 25.6952C9 16.0265 16.9594 6 29 6C41.0406 6 49 16.0265 49 25.6952Z" fill="#00503C"/>
<path d="M29 53L28.5124 53.8731L29 54.1454L29.4876 53.8731L29 53ZM29 53C29.4876 53.8731 29.488 53.8729 29.4884 53.8726L29.4896 53.872L29.4934 53.8698L29.5064 53.8625L29.5536 53.8357C29.5943 53.8124 29.6535 53.7783 29.7298 53.7336C29.8824 53.6443 30.1037 53.5125 30.3839 53.3399C30.9442 52.9947 31.7406 52.4855 32.6946 51.8245C34.6006 50.5036 37.145 48.5698 39.6932 46.1187C44.7569 41.2481 50 34.1752 50 25.6952C50 15.5326 41.6496 5 29 5C16.3504 5 8 15.5326 8 25.6952C8 34.1752 13.2431 41.2481 18.3068 46.1187C20.855 48.5698 23.3994 50.5036 25.3054 51.8245C26.2594 52.4855 27.0558 52.9947 27.6161 53.3399C27.8963 53.5125 28.1176 53.6443 28.2702 53.7336C28.3465 53.7783 28.4057 53.8124 28.4464 53.8357L28.4936 53.8625L28.5066 53.8698L28.5104 53.872L28.5116 53.8726C28.512 53.8729 28.5124 53.8731 29 53Z" stroke="white" stroke-width="2"/>
</g>
<rect x="40" y="18" width="16" height="22" rx="2" transform="rotate(90 40 18)" stroke="white" stroke-width="2"/>
<rect x="40.5" y="22.5" width="1" height="23" rx="0.5" transform="rotate(90 40.5 22.5)" stroke="white"/>
<rect x="26" y="28" width="2" height="4" transform="rotate(90 26 28)" fill="white"/>
<defs>
<filter id="filter0_d" x="0" y="0" width="60" height="67.2908" filterUnits="userSpaceOnUse" color-interpolation-filters="sRGB">
<feFlood flood-opacity="0" result="BackgroundImageFix"/>
<feColorMatrix in="SourceAlpha" type="matrix" values="0 0 0 0 0 0 0 0 0 0 0 0 0 0 0 0 0 0 127 0"/>
<feOffset dx="1" dy="4"/>
<feGaussianBlur stdDeviation="4"/>
<feColorMatrix type="matrix" values="0 0 0 0 0 0 0 0 0 0 0 0 0 0 0 0 0 0 0.1 0"/>
<feBlend mode="normal" in2="BackgroundImageFix" result="effect1_dropShadow"/>
<feBlend mode="normal" in="SourceGraphic" in2="effect1_dropShadow" result="shape"/>
</filter>
</defs>
</svg>
